<mxfile host="app.diagrams.net" modified="2022-02-09T06:44:15.784Z" agent="5.0 (X11)" etag="wb9_jp4rkP6E3Gr8tsrX" version="16.2.4" type="github">
  <diagram id="puUTBUuJNynbivWaSY4E" name="Page-1">
    <mxGraphModel dx="1424" dy="793" grid="1" gridSize="10" guides="1" tooltips="1" connect="1" arrows="1" fold="1" page="1" pageScale="1" pageWidth="850" pageHeight="1100" math="0" shadow="0">
      <root>
        <mxCell id="0" />
        <mxCell id="1" parent="0" />
        <mxCell id="Rxj3ELPOz9cz728VgZR8-1" value="&lt;div style=&quot;font-size: 15px&quot;&gt;&lt;font style=&quot;font-size: 15px&quot;&gt;Selenium Client Libraries&lt;/font&gt;&lt;/div&gt;&lt;div style=&quot;font-size: 15px&quot;&gt;&lt;font style=&quot;font-size: 15px&quot;&gt;(Python, JS, etc)&lt;br&gt;&lt;/font&gt;&lt;/div&gt;" style="shape=document;whiteSpace=wrap;html=1;boundedLbl=1;" vertex="1" parent="1">
          <mxGeometry x="70" y="330" width="120" height="80" as="geometry" />
        </mxCell>
        <mxCell id="Rxj3ELPOz9cz728VgZR8-2" value="&lt;div style=&quot;font-size: 17px&quot;&gt;&lt;font style=&quot;font-size: 17px&quot;&gt;JSON Write&lt;/font&gt;&lt;/div&gt;&lt;div style=&quot;font-size: 17px&quot;&gt;&lt;font style=&quot;font-size: 17px&quot;&gt;&amp;nbsp;Protocol&lt;/font&gt;&lt;/div&gt;" style="shape=step;perimeter=stepPerimeter;whiteSpace=wrap;html=1;fixedSize=1;" vertex="1" parent="1">
          <mxGeometry x="280" y="330" width="120" height="80" as="geometry" />
        </mxCell>
        <mxCell id="Rxj3ELPOz9cz728VgZR8-10" style="edgeStyle=orthogonalEdgeStyle;rounded=0;orthogonalLoop=1;jettySize=auto;html=1;exitX=0.5;exitY=0;exitDx=0;exitDy=0;entryX=0.5;entryY=0;entryDx=0;entryDy=0;" edge="1" parent="1" source="Rxj3ELPOz9cz728VgZR8-6" target="Rxj3ELPOz9cz728VgZR8-7">
          <mxGeometry relative="1" as="geometry">
            <Array as="points">
              <mxPoint x="530" y="230" />
              <mxPoint x="730" y="230" />
            </Array>
          </mxGeometry>
        </mxCell>
        <mxCell id="Rxj3ELPOz9cz728VgZR8-6" value="&lt;div style=&quot;font-size: 16px&quot;&gt;&lt;font style=&quot;font-size: 16px&quot;&gt;Browser Drivers&lt;/font&gt;&lt;/div&gt;&lt;div style=&quot;font-size: 16px&quot;&gt;&lt;font style=&quot;font-size: 16px&quot;&gt;(Chrome Driver,&lt;/font&gt;&lt;/div&gt;&lt;div style=&quot;font-size: 16px&quot;&gt;&lt;font style=&quot;font-size: 16px&quot;&gt;Firefox Driver,&lt;/font&gt;&lt;/div&gt;&lt;div style=&quot;font-size: 16px&quot;&gt;&lt;font style=&quot;font-size: 16px&quot;&gt;etc)&lt;br&gt;&lt;/font&gt;&lt;/div&gt;" style="rounded=0;whiteSpace=wrap;html=1;" vertex="1" parent="1">
          <mxGeometry x="470" y="320" width="120" height="100" as="geometry" />
        </mxCell>
        <mxCell id="Rxj3ELPOz9cz728VgZR8-9" style="edgeStyle=orthogonalEdgeStyle;rounded=0;orthogonalLoop=1;jettySize=auto;html=1;entryX=0.5;entryY=1;entryDx=0;entryDy=0;exitX=0.5;exitY=1;exitDx=0;exitDy=0;" edge="1" parent="1" source="Rxj3ELPOz9cz728VgZR8-7" target="Rxj3ELPOz9cz728VgZR8-6">
          <mxGeometry relative="1" as="geometry">
            <Array as="points">
              <mxPoint x="730" y="520" />
              <mxPoint x="530" y="520" />
            </Array>
          </mxGeometry>
        </mxCell>
        <mxCell id="Rxj3ELPOz9cz728VgZR8-7" value="&lt;div style=&quot;font-size: 18px&quot;&gt;&lt;font style=&quot;font-size: 18px&quot;&gt;Real Browsers&lt;/font&gt;&lt;/div&gt;&lt;div style=&quot;font-size: 18px&quot;&gt;&lt;font style=&quot;font-size: 18px&quot;&gt;(Chrome, Firefox,&lt;/font&gt;&lt;/div&gt;&lt;div style=&quot;font-size: 18px&quot;&gt;&lt;font style=&quot;font-size: 18px&quot;&gt;etc)&lt;br&gt;&lt;/font&gt;&lt;/div&gt;" style="rounded=0;whiteSpace=wrap;html=1;" vertex="1" parent="1">
          <mxGeometry x="670" y="320" width="120" height="100" as="geometry" />
        </mxCell>
        <mxCell id="Rxj3ELPOz9cz728VgZR8-12" value="&lt;div&gt;http&lt;/div&gt;&lt;div&gt;&lt;br&gt;&lt;/div&gt;" style="aspect=fixed;perimeter=ellipsePerimeter;html=1;align=center;shadow=0;dashed=0;spacingTop=3;image;image=img/lib/active_directory/internet_cloud.svg;" vertex="1" parent="1">
          <mxGeometry x="610" y="480" width="50" height="31.5" as="geometry" />
        </mxCell>
        <mxCell id="Rxj3ELPOz9cz728VgZR8-13" value="&lt;div&gt;https&lt;/div&gt;&lt;div&gt;&lt;br&gt;&lt;/div&gt;" style="aspect=fixed;perimeter=ellipsePerimeter;html=1;align=center;shadow=0;dashed=0;spacingTop=3;image;image=img/lib/active_directory/internet_cloud.svg;" vertex="1" parent="1">
          <mxGeometry x="610" y="190" width="50" height="31.5" as="geometry" />
        </mxCell>
        <mxCell id="Rxj3ELPOz9cz728VgZR8-16" value="" style="shape=flexArrow;endArrow=classic;startArrow=classic;html=1;rounded=0;fontSize=18;entryX=0;entryY=0.5;entryDx=0;entryDy=0;exitX=1;exitY=0.5;exitDx=0;exitDy=0;" edge="1" parent="1" source="Rxj3ELPOz9cz728VgZR8-2" target="Rxj3ELPOz9cz728VgZR8-6">
          <mxGeometry width="100" height="100" relative="1" as="geometry">
            <mxPoint x="340" y="570" as="sourcePoint" />
            <mxPoint x="440" y="470" as="targetPoint" />
          </mxGeometry>
        </mxCell>
        <mxCell id="Rxj3ELPOz9cz728VgZR8-17" value="" style="shape=flexArrow;endArrow=classic;startArrow=classic;html=1;rounded=0;fontSize=18;exitX=1;exitY=0.5;exitDx=0;exitDy=0;entryX=0;entryY=0.5;entryDx=0;entryDy=0;" edge="1" parent="1" source="Rxj3ELPOz9cz728VgZR8-1" target="Rxj3ELPOz9cz728VgZR8-2">
          <mxGeometry width="100" height="100" relative="1" as="geometry">
            <mxPoint x="200" y="530" as="sourcePoint" />
            <mxPoint x="300" y="430" as="targetPoint" />
            <Array as="points" />
          </mxGeometry>
        </mxCell>
      </root>
    </mxGraphModel>
  </diagram>
</mxfile>
